<?xml version="1.0" encoding="UTF-8"?>
<svg version="1.1" xmlns="http://www.w3.org/2000/svg" width="959" height="314">
<path d="M0 0 C316.47 0 632.94 0 959 0 C959 103.62 959 207.24 959 314 C642.53 314 326.06 314 0 314 C0 210.38 0 106.76 0 0 Z " fill="#010103" transform="translate(0,0)"/>
<path d="M0 0 C9.62334511 -0.02323754 19.24668046 -0.04097305 28.87004757 -0.05181217 C33.33923781 -0.05701612 37.80840875 -0.06406828 42.27758789 -0.07543945 C46.59587861 -0.08635713 50.91415084 -0.09229556 55.2324543 -0.09487724 C56.87455091 -0.09671555 58.51664659 -0.10030514 60.15873528 -0.10573006 C86.86318038 -0.19039144 106.71254539 7.33097056 126.1875 25.875 C142.1401366 42.40423793 148.1720828 62.27932481 148.29516602 84.74829102 C148.30659522 86.19175083 148.32690056 87.63517148 148.35668945 89.07836914 C148.63844684 102.79003713 146.88453483 116.06335121 140.25 128.3125 C139.90275879 128.97362793 139.55551758 129.63475586 139.19775391 130.31591797 C128.46442358 150.26448897 110.66988864 167.47038069 89 175 C76.52323927 178.30308015 64.60751795 179.14630877 51.78125 179.09765625 C49.84717285 179.09614563 49.84717285 179.09614563 47.87402344 179.09460449 C43.08267317 179.08939405 38.29133564 179.07543285 33.5 179.0625 C17.4125 179.0315625 17.4125 179.0315625 1 179 C1 137.75 1 96.5 1 54 C-3.29 54 -7.58 54 -12 54 C-11.29040484 48.60994384 -10.3120588 43.31816941 -9.1875 38 C-9.01226807 37.16839355 -8.83703613 36.33678711 -8.65649414 35.47998047 C-7.31316834 29.2183199 -5.75847652 23.04950864 -4.02734375 16.8828125 C-3.06159387 13.36409807 -2.2517728 9.81345634 -1.43579102 6.25732422 C-1.16662369 5.08579803 -0.89745636 3.91427185 -0.62013245 2.70724487 C-0.41548874 1.81385406 -0.21084503 0.92046326 0 0 Z " fill="#FDFDFD" transform="translate(580,48)"/>
<path d="M0 0 C11.93567843 -0.06970685 23.87130791 -0.12291605 35.80714893 -0.15543652 C41.35026587 -0.17104973 46.89324287 -0.19220831 52.4362793 -0.22631836 C57.79200797 -0.25906713 63.14760257 -0.27688565 68.50342369 -0.28463173 C70.54022009 -0.29014747 72.57700968 -0.30091797 74.61374855 -0.31719017 C94.78599808 -0.4718502 94.78599808 -0.4718502 104 3 C105.28430656 3.41938591 105.28430656 3.41938591 106.59455872 3.84724426 C120.73673408 8.54183823 131.65019845 19.76736655 138.3125 32.75 C146.45858218 49.633475 147.70368306 69.80248529 143 88 C141.97653517 90.85484612 140.7281966 93.5080418 139.3125 96.1875 C138.95728271 96.87457031 138.60206543 97.56164062 138.23608398 98.26953125 C135.44348188 103.50744952 132.34865139 107.92427652 128 112 C127.21882812 112.7425 126.43765625 113.485 125.6328125 114.25 C119.38368056 120 119.38368056 120 117 120 C121.73515418 129.71452835 126.734719 139.23959016 131.98583984 148.68530273 C135.34926177 154.75674369 138.50892822 160.8969773 141.5625 167.12890625 C142.77961487 169.55982862 144.05858911 171.90872422 145.4375 174.25 C147 177 147 177 147 179 C124.89 179 102.78 179 80 179 C77.69 174.111875 75.38 169.22375 73 164.1875 C72.28972656 162.68985107 71.57945312 161.19220215 70.84765625 159.64916992 C65.92662232 149.19129981 61.49590908 138.67778408 57 128 C56.67 144.83 56.34 161.66 56 179 C37.85 179 19.7 179 1 179 C1 137.42 1 95.84 1 53 C-3.29 53 -7.58 53 -12 53 C-11.34544421 46.41548045 -9.91145205 40.21076863 -8.25 33.8125 C-6.21903757 25.9124929 -4.27264252 17.9977929 -2.38964844 10.0612793 C-2.15913788 9.09134789 -1.92862732 8.12141647 -1.69113159 7.1220932 C-1.12701212 4.74815895 -0.56331191 2.37412598 0 0 Z " fill="#FEFEFE" transform="translate(319,48)"/>
<path d="M0 0 C30.03 0 60.06 0 91 0 C92.98 7.59 94.96 15.18 97 23 C98.13509975 26.87283008 99.27871271 30.71958148 100.5 34.5625 C103.05795029 42.79663019 105.4271906 51.06084715 107.66235352 59.38793945 C109.67453861 66.86544907 111.79430892 74.30907338 113.9375 81.75 C116.56831549 90.89417523 119.11434782 100.05526019 121.5625 109.25 C124.58369503 120.58676444 127.8343014 131.84615325 131.15039062 143.09960938 C132.56067366 147.91402387 133.93762859 152.73787373 135.3125 157.5625 C135.55492432 158.41303955 135.79734863 159.2635791 136.04711914 160.13989258 C136.49510371 161.71266496 136.94126337 163.28595873 137.38525391 164.85986328 C137.95399974 166.8398577 138.55941727 168.80921906 139.16796875 170.77734375 C140 174 140 174 140 179 C120.53 179 101.06 179 81 179 C79.45922201 174.37766602 78.31720026 170.12407001 77.375 165.375 C77.11460937 164.08335937 76.85421875 162.79171875 76.5859375 161.4609375 C76 158 76 158 76 154 C59.5 154 43 154 26 154 C25.01 158.29 24.02 162.58 23 167 C21.68 170.96 20.36 174.92 19 179 C-0.14 179 -19.28 179 -39 179 C-37.81926181 172.50593995 -36.69175778 166.40256078 -35.01171875 160.0859375 C-34.8283194 159.39286499 -34.64492004 158.69979248 -34.45596313 157.98571777 C-33.87096113 155.78092175 -33.2795042 153.57792512 -32.6875 151.375 C-32.27809914 149.83874167 -31.86883892 148.30244586 -31.4597168 146.76611328 C-29.50242933 139.44111545 -27.51345222 132.13123519 -25.3125 124.875 C-23.04176062 117.36289643 -21.17170595 109.77159932 -19.30224609 102.15087891 C-17.43850796 94.60888039 -15.36998797 87.14624109 -13.1887207 79.69067383 C-11.14059731 72.63888152 -9.33861094 65.53925499 -7.64819336 58.39355469 C-7.4600708 57.61270508 -7.27194824 56.83185547 -7.078125 56.02734375 C-6.91731445 55.34406006 -6.75650391 54.66077637 -6.59082031 53.95678711 C-6 52 -6 52 -4 48 C-7.96 48 -11.92 48 -16 48 C-13.61486082 31.30402577 -5.79466774 15.83875848 0 0 Z " fill="#FDFDFD" transform="translate(778,48)"/>
<path d="M0 0 C18.15 0 36.3 0 55 0 C55 59.07 55 118.14 55 179 C36.85 179 18.7 179 0 179 C0 137.42 0 95.84 0 53 C-4.29 53 -8.58 53 -13 53 C-12.75983154 51.98091553 -12.51966309 50.96183105 -12.2722168 49.91186523 C-10.64644873 43.00965415 -9.02303075 36.10693582 -7.41384888 29.20083618 C-6.72235273 26.2339085 -6.02886254 23.26744842 -5.33520508 20.30102539 C-4.98051063 18.78201866 -4.62669881 17.26280561 -4.27368164 15.7434082 C-3.75379221 13.50677349 -3.23073491 11.27090049 -2.70703125 9.03515625 C-2.54975052 8.35510025 -2.39246979 7.67504425 -2.23042297 6.97438049 C-1.11386951 2.22773902 -1.11386951 2.22773902 0 0 Z " fill="#FEFEFE" transform="translate(493,48)"/>
<path d="M0 0 C5.97725092 3.17716962 11.14086169 7.05024811 16.4375 11.25 C17.26443359 11.8996875 18.09136719 12.549375 18.94335938 13.21875 C20.96551299 14.8084199 22.98425389 16.40221867 25 18 C20.82649698 21.62697287 16.37563402 24.09876476 11.5 26.625 C10.75363281 27.01945312 10.00726563 27.41390625 9.23828125 27.8203125 C5.55473449 29.75009983 1.90851773 31.55757084 -2 33 C-0.515 28.545 -0.515 28.545 1 24 C0.29101562 24.15855469 -0.41796875 24.31710938 -1.1484375 24.48046875 C-6.90278378 25.74140904 -12.65510609 26.95040115 -18.453125 27.99609375 C-37.53024481 31.46325134 -56.25228269 36.08352275 -75 41 C-76.02963867 41.26925293 -77.05927734 41.53850586 -78.12011719 41.81591797 C-105.46439163 49.0622999 -132.12325205 58.6116408 -158 70 C-158.90911133 70.39928711 -159.81822266 70.79857422 -160.75488281 71.20996094 C-189.73390418 84.08580357 -228.32818554 103.32543532 -242.16796875 133.55078125 C-243.92269509 138.71610245 -243.79849063 143.3391395 -241.4375 148.25 C-233.09190691 157.66554092 -222.46743534 159.37536282 -210.40234375 160.17138672 C-207.74786727 160.31630942 -205.09326564 160.44364328 -202.4375 160.5625 C-201.52419922 160.60568359 -200.61089844 160.64886719 -199.66992188 160.69335938 C-197.44672009 160.79811757 -195.22343293 160.90029017 -193 161 C-198.65479693 166.65479693 -213.49919757 166.33186292 -221.3125 166.4375 C-231.68118081 166.22040898 -241.9505922 163.85474864 -249.578125 156.47265625 C-254.56452184 151.13527517 -257.04542849 145.68403135 -257.5 138.375 C-256.7489801 119.48396101 -242.85195088 104.68590697 -229.74511719 92.56933594 C-178.40915824 46.40431857 -98.42276346 26.1642585 -31.73046875 16.546875 C-28.60839615 16.08918896 -25.53205765 15.54808537 -22.4375 14.9375 C-14.69919231 13.47581966 -6.82774971 12.80947027 1 12 C0.67 11.34 0.34 10.68 0 10 C-0.06996014 8.29297265 -0.08440154 6.58331997 -0.0625 4.875 C-0.05347656 3.96492188 -0.04445313 3.05484375 -0.03515625 2.1171875 C-0.01775391 1.06917969 -0.01775391 1.06917969 0 0 Z " fill="#E2D603" transform="translate(279,79)"/>
<path d="M0 0 C1.10153195 16.15580193 -7.65306036 31.03520224 -17.25 43.3125 C-25.80959743 54.34810144 -28.36639465 64.01274172 -27 78 C-26.67672272 80.01075715 -26.34234294 82.01974473 -26 84.02734375 C-24.79201726 91.5802313 -24.60359932 99.05153274 -24.625 106.6875 C-24.62521149 107.38799469 -24.62542297 108.08848938 -24.62564087 108.81021118 C-24.65920665 119.97679867 -25.55833694 130.32748132 -29 141 C-29.38542969 142.2271875 -29.77085937 143.454375 -30.16796875 144.71875 C-33.06874436 153.05495952 -36.24117026 159.36674239 -44.3125 163.4375 C-49.71198823 165.52119512 -54.74087216 166.35796993 -60.203125 164.08203125 C-67.47664814 159.91995968 -70.52918009 153.82988119 -73 146 C-73.58961154 143.24690784 -73.95096076 140.49013121 -74.28125 137.6953125 C-74.38087036 136.9312912 -74.48049072 136.1672699 -74.58312988 135.38009644 C-74.89784995 132.96279094 -75.20032163 130.54421297 -75.5 128.125 C-76.77156164 110.17348551 -76.77156164 110.17348551 -85 95 C-89.74970066 93.41676645 -94.05677925 93.0638283 -98.5703125 95.23828125 C-107.06652416 101.39871768 -108.61124236 113.54622378 -110.8359375 123.14453125 C-112.32749966 129.54530009 -114.05136501 136.10273002 -117 142 C-117.66 142 -118.32 142 -119 142 C-119.65974288 97.00553546 -119.65974288 97.00553546 -107.8671875 84.65625 C-101.81784303 79.29030428 -95.54763762 77.56258306 -87.59765625 77.65625 C-81.86743015 78.41453556 -78.17370601 81.79961885 -74.25 85.8125 C-69.99506199 91.84032885 -67.3465662 98.13168374 -65.5 105.25 C-65.29133301 106.03850342 -65.08266602 106.82700684 -64.86767578 107.6394043 C-62.67016747 116.46709475 -61.52243559 125.45760871 -60.43164062 134.47949219 C-59.48222471 142.67512108 -59.48222471 142.67512108 -56 150 C-53.04206277 151.47896861 -51.29779776 151.4355582 -48 151 C-41.80933098 148.10638392 -39.3623853 142.39699041 -37.07177734 136.26806641 C-36.34625805 134.18844225 -35.66396776 132.10004771 -35 130 C-34.78682129 129.34016113 -34.57364258 128.68032227 -34.35400391 128.00048828 C-28.53419665 109.12880559 -29.12687982 87.9161886 -34.125 68.953125 C-37.52431457 55.36924984 -31.12204764 43.77734354 -25.05957031 32.07714844 C-23.34213463 28.71034134 -21.72618935 25.29829145 -20.125 21.875 C-19.57070312 20.69679687 -19.01640625 19.51859375 -18.4453125 18.3046875 C-16.0699823 12.8735271 -14.70669469 7.88912242 -14 2 C-4.58997722 -0.29612756 -4.58997722 -0.29612756 0 0 Z " fill="#F6F6F6" transform="translate(248,113)"/>
<path d="M0 0 C7.10846689 3.56308804 14.09759682 7.37016812 21.03515625 11.25390625 C22.00618286 11.78987427 22.00618286 11.78987427 22.99682617 12.33666992 C24.75051636 13.30618044 26.49666274 14.28930173 28.2421875 15.2734375 C37.97174778 20.06269626 47.50175097 20.39556002 58.1875 20.1875 C59.53449006 20.17240904 60.88149668 20.15872852 62.22851562 20.14648438 C65.48611152 20.11145646 68.74283173 20.06233662 72 20 C65.78807058 26.72017819 58.53897746 29.77236272 49.48828125 30.453125 C47.88855195 30.50815932 46.28807688 30.54471581 44.6875 30.5625 C43.60637939 30.58437378 43.60637939 30.58437378 42.50341797 30.60668945 C28.57042315 30.35631436 15.54049979 24.91980462 3 19.375 C-14.26123374 11.25068773 -14.26123374 11.25068773 -32.75 12.1875 C-40.16380635 16.32212277 -42.3489072 21.19283337 -44.5546875 28.95092773 C-46.16043785 35.41793286 -46.33263756 41.67113157 -46.3125 48.3125 C-46.32861328 49.36373047 -46.34472656 50.41496094 -46.36132812 51.49804688 C-46.36823908 62.74217015 -43.63090137 72.27186604 -38.890625 82.40625 C-38 85 -38 85 -38.0234375 87.13671875 C-39.50591331 89.96528259 -41.58666478 90.83782927 -44.375 92.3125 C-45.84066406 93.11107422 -45.84066406 93.11107422 -47.3359375 93.92578125 C-50 95 -50 95 -53 94 C-54.31640625 91.671875 -54.31640625 91.671875 -55.5625 88.75 C-56.18318359 87.31914062 -56.18318359 87.31914062 -56.81640625 85.859375 C-57.20699219 84.91578125 -57.59757812 83.9721875 -58 83 C-58.34675781 82.21625 -58.69351563 81.4325 -59.05078125 80.625 C-66.66644725 59.56439279 -65.50729882 32.02598636 -56.4375 11.75390625 C-44.12135599 -11.8408805 -21.31263904 -9.9106177 0 0 Z " fill="#F9F9F9" transform="translate(126,54)"/>
<path d="M0 0 C9.24713917 0 16.94569578 2.28306804 24.21484375 8.1640625 C32.11299901 16.28689176 34.53533309 25.93541267 34.57006836 36.88598633 C34.30328667 46.08019432 31.2094386 53.55002205 24.8125 60.3125 C16.80492277 66.98548103 10.63660827 68 0 68 C0 45.56 0 23.12 0 0 Z " fill="#010103" transform="translate(637,102)"/>
<path d="M0 0 C10.8778708 7.45648125 17.32527955 18.89512611 20.75 31.5 C21.27951269 34.46527107 21.42617577 37.01133479 21.375 40 C19.4386296 40.50435694 17.50085854 41.00333874 15.5625 41.5 C14.48355469 41.7784375 13.40460938 42.056875 12.29296875 42.34375 C9.375 43 9.375 43 6.375 43 C6.13265625 41.9378125 5.8903125 40.875625 5.640625 39.78125 C2.47975082 25.69854775 2.47975082 25.69854775 -5.625 14 C-19.15294269 5.89242145 -33.26918469 7.1384777 -48.22290039 9.92602539 C-54.0670055 10.99179431 -59.67994167 11.35356074 -65.625 11 C-62.71940261 9.06293508 -60.26714276 8.05778839 -57 6.875 C-50.61462184 4.47599403 -44.49425677 1.66394952 -38.36279297 -1.32080078 C-37.67459473 -1.65321777 -36.98639648 -1.98563477 -36.27734375 -2.328125 C-35.66882568 -2.6262207 -35.06030762 -2.92431641 -34.43334961 -3.23144531 C-23.84655391 -7.73086922 -9.68714662 -5.65527104 0 0 Z " fill="#F7F7F7" transform="translate(226.625,52)"/>
<path d="M0 0 C0.44589543 8.86836467 0.02968905 16.73943696 -2 25.375 C-3.83049758 33.44796369 -4.41384209 41.22564623 -4.4375 49.5 C-4.44716797 50.56138184 -4.45683594 51.62276367 -4.46679688 52.71630859 C-4.352758 63.45776397 -1.90855356 73.12604997 2.8125 82.75 C3.15925781 83.47372803 3.50601563 84.19745605 3.86328125 84.94311523 C6.40039851 90.10654529 9.25963021 94.6050655 13 99 C3.34302641 95.74140786 -2.50014362 86.68485401 -7 78 C-7.45246094 77.14664063 -7.90492187 76.29328125 -8.37109375 75.4140625 C-14.08811493 63.84430451 -15.49382402 51.81157848 -15.33618164 39.04101562 C-15.31251043 37.00089929 -15.31566376 34.9620952 -15.32226562 32.921875 C-15.2807705 9.32090061 -15.2807705 9.32090061 -10.8215332 4.78320312 C-8.60537432 3.25992892 -6.45958742 2.07836389 -4 1 C-2 0 -2 0 0 0 Z " fill="#F2F2F2" transform="translate(100,163)"/>
<path d="M0 0 C4.455 -0.0928125 4.455 -0.0928125 9 -0.1875 C9.91910156 -0.21481201 10.83820313 -0.24212402 11.78515625 -0.27026367 C17.55445551 -0.32778349 21.75683761 0.54970706 27 3 C31.32748718 7.5494096 32.3208087 10.5738483 32.203125 16.68359375 C31.89729126 20.17127464 31.09509236 22.18471965 29 25 C23.00753106 29.33947116 17.16276082 29.50484634 10 29.25 C5.05 29.12625 5.05 29.12625 0 29 C0 19.43 0 9.86 0 0 Z " fill="#020204" transform="translate(376,100)"/>
<path d="M0 0 C0.66 0 1.32 0 2 0 C2.32871094 1.47533203 2.32871094 1.47533203 2.6640625 2.98046875 C5.55250459 15.70859026 8.98780237 28.2790524 12.85107422 40.74658203 C13.26317139 42.08052002 13.26317139 42.08052002 13.68359375 43.44140625 C13.9355249 44.24392822 14.18745605 45.0464502 14.44702148 45.87329102 C15 48 15 48 15 51 C6.09 51 -2.82 51 -12 51 C-11.31944582 44.87501237 -10.54303547 39.7104529 -8.8125 33.9375 C-6.60083485 26.28996492 -4.60359748 18.60179048 -2.6875 10.875 C-2.42106689 9.80113037 -2.15463379 8.72726074 -1.88012695 7.62084961 C-1.2515197 5.08102859 -0.6246833 2.54078852 0 0 Z " fill="#080809" transform="translate(828,104)"/>
<path d="M0 0 C9.12317328 -0.48016701 9.12317328 -0.48016701 12.625 1.4375 C14.69251226 5.29059104 14.73682337 8.72799219 14 13 C12.625 15.5625 12.625 15.5625 10 17 C6.59259145 17.31510518 3.43772582 17.18093294 0 17 C0 11.39 0 5.78 0 0 Z " fill="#DEDEDE" transform="translate(705,261)"/>
<path d="M0 0 C9.12317328 -0.48016701 9.12317328 -0.48016701 12.625 1.4375 C14.69251226 5.29059104 14.73682337 8.72799219 14 13 C12.625 15.5625 12.625 15.5625 10 17 C6.59259145 17.31510518 3.43772582 17.18093294 0 17 C0 11.39 0 5.78 0 0 Z " fill="#DEDEDE" transform="translate(352,261)"/>
<path d="M0 0 C9.12317328 -0.48016701 9.12317328 -0.48016701 12.625 1.4375 C14.69251226 5.29059104 14.73682337 8.72799219 14 13 C12.625 15.5625 12.625 15.5625 10 17 C6.59259145 17.31510518 3.43772582 17.18093294 0 17 C0 11.39 0 5.78 0 0 Z " fill="#DFDFDF" transform="translate(618,261)"/>
<path d="M0 0 C8.1021987 -0.60464169 8.1021987 -0.60464169 12.0625 2.0625 C14.50495172 5.76557196 14.7007844 7.63956374 14 12 C12.625 14.9375 12.625 14.9375 10 17 C6.55567995 17.42109242 3.49274738 17.22978601 0 17 C0 11.39 0 5.78 0 0 Z " fill="#E1E1E1" transform="translate(853,261)"/>
<path d="M0 0 C1.65 0 3.3 0 5 0 C5.99 2.64 6.98 5.28 8 8 C8.66 5.36 9.32 2.72 10 0 C11.98 0 13.96 0 16 0 C16 5.61 16 11.22 16 17 C14.68 17 13.36 17 12 17 C11.67 15.68 11.34 14.36 11 13 C10.67 14.32 10.34 15.64 10 17 C8.68 17 7.36 17 6 17 C5.34 14.36 4.68 11.72 4 9 C3.67 11.64 3.34 14.28 3 17 C2.01 17 1.02 17 0 17 C0 11.39 0 5.78 0 0 Z " fill="#D5D5D5" transform="translate(888,261)"/>
<path d="M0 0 C10.46944983 -0.36950999 10.46944983 -0.36950999 12.87890625 1.30859375 C14.72700082 4.09683399 13.53238461 6.80569236 13 10 C13.2602896 12.34260643 13.57420028 14.6817571 14 17 C12.68 17 11.36 17 10 17 C10 15.02 10 13.04 10 11 C8.02 11 6.04 11 4 11 C4 12.98 4 14.96 4 17 C2.68 17 1.36 17 0 17 C0 11.39 0 5.78 0 0 Z " fill="#DCDCDC" transform="translate(317,261)"/>
<path d="M0 0 C5 1 5 1 6.36328125 2.62890625 C7.2421875 4.41927083 8.12109375 6.20963542 9 8 C9.33 5.36 9.66 2.72 10 0 C11.32 0 12.64 0 14 0 C14 5.61 14 11.22 14 17 C9 16 9 16 7.63671875 14.37109375 C6.31835938 11.68554688 6.31835938 11.68554688 5 9 C4.67 11.64 4.34 14.28 4 17 C2.68 17 1.36 17 0 17 C0 11.39 0 5.78 0 0 Z " fill="#DCDCDC" transform="translate(740,261)"/>
<path d="M0 0 C5 1 5 1 6.36328125 2.62890625 C7.2421875 4.41927083 8.12109375 6.20963542 9 8 C9.33 5.36 9.66 2.72 10 0 C11.32 0 12.64 0 14 0 C14 5.61 14 11.22 14 17 C9 16 9 16 7.63671875 14.37109375 C6.31835938 11.68554688 6.31835938 11.68554688 5 9 C4.67 11.64 4.34 14.28 4 17 C2.68 17 1.36 17 0 17 C0 11.39 0 5.78 0 0 Z " fill="#DCDCDC" transform="translate(468,261)"/>
<path d="M0 0 C5 1 5 1 6.36328125 2.62890625 C7.2421875 4.41927083 8.12109375 6.20963542 9 8 C9.33 5.36 9.66 2.72 10 0 C11.32 0 12.64 0 14 0 C14 5.61 14 11.22 14 17 C9 16 9 16 7.63671875 14.37109375 C6.31835938 11.68554688 6.31835938 11.68554688 5 9 C4.67 11.64 4.34 14.28 4 17 C2.68 17 1.36 17 0 17 C0 11.39 0 5.78 0 0 Z " fill="#DFDFE0" transform="translate(687,261)"/>
<path d="M0 0 C5 1 5 1 6.36328125 2.62890625 C7.2421875 4.41927083 8.12109375 6.20963542 9 8 C9.33 5.36 9.66 2.72 10 0 C11.32 0 12.64 0 14 0 C14 5.61 14 11.22 14 17 C9 16 9 16 7.63671875 14.37109375 C6.31835938 11.68554688 6.31835938 11.68554688 5 9 C4.67 11.64 4.34 14.28 4 17 C2.68 17 1.36 17 0 17 C0 11.39 0 5.78 0 0 Z " fill="#DFDFE0" transform="translate(414,261)"/>
<path d="M0 0 C10.75 -0.125 10.75 -0.125 13 1 C13 2.98 13 4.96 13 7 C12.34 7 11.68 7 11 7 C11 7.66 11 8.32 11 9 C11.66 9 12.32 9 13 9 C13 11.31 13 13.62 13 16 C11.68 16 10.36 16 9 16 C8.67 14.02 8.34 12.04 8 10 C6.35 9.67 4.7 9.34 3 9 C3 11.31 3 13.62 3 16 C2.01 16 1.02 16 0 16 C0 10.72 0 5.44 0 0 Z " fill="#D5D5D5" transform="translate(522,262)"/>
<path d="M0 0 C3.94232388 0.63358777 5.16488558 1.38674439 7.5 4.5625 C7.5 5.2225 7.5 5.8825 7.5 6.5625 C4.2 6.2325 0.9 5.9025 -2.5 5.5625 C-2.5 7.8725 -2.5 10.1825 -2.5 12.5625 C-0.85 12.8925 0.8 13.2225 2.5 13.5625 C2.83 12.9025 3.16 12.2425 3.5 11.5625 C2.51 11.5625 1.52 11.5625 0.5 11.5625 C0.5 10.5725 0.5 9.5825 0.5 8.5625 C2.81 8.5625 5.12 8.5625 7.5 8.5625 C7.5 11.5325 7.5 14.5025 7.5 17.5625 C-2.49003559 18.33758897 -2.49003559 18.33758897 -6.1875 15.5 C-7.83008624 11.82373556 -8.06993808 9.55206659 -7.5 5.5625 C-5.40973646 1.63280455 -4.43218827 0.71231597 0 0 Z " fill="#E9E9E9" transform="translate(439.5,260.4375)"/>
<path d="M0 0 C3.96 0 7.92 0 12 0 C12 1.32 12 2.64 12 4 C9.36 4 6.72 4 4 4 C4 4.99 4 5.98 4 7 C6.31 7 8.62 7 11 7 C11 7.99 11 8.98 11 10 C8.69 10 6.38 10 4 10 C4 10.99 4 11.98 4 13 C6.97 13 9.94 13 13 13 C13 14.32 13 15.64 13 17 C8.71 17 4.42 17 0 17 C0 11.39 0 5.78 0 0 Z " fill="#D6D6D6" transform="translate(871,261)"/>
<path d="M0 0 C1.588125 -0.061875 3.17625 -0.12375 4.8125 -0.1875 C6.15248047 -0.23970703 6.15248047 -0.23970703 7.51953125 -0.29296875 C10 0 10 0 11.80078125 1.3203125 C13.64840923 3.90819533 13.39299693 5.92152405 13 9 C9.5647952 11.29013653 8.014669 11.17842973 4 11 C4 12.98 4 14.96 4 17 C2.68 17 1.36 17 0 17 C0 11.39 0 5.78 0 0 Z " fill="#DEDEDE" transform="translate(653,261)"/>
<path d="M0 0 C4.29 0 8.58 0 13 0 C13 1.32 13 2.64 13 4 C10.03 4 7.06 4 4 4 C4 4.99 4 5.98 4 7 C6.64 7 9.28 7 12 7 C12 7.99 12 8.98 12 10 C9.36 10 6.72 10 4 10 C4 11.32 4 12.64 4 14 C6.97 14 9.94 14 13 14 C13 14.99 13 15.98 13 17 C8.71 17 4.42 17 0 17 C0 11.39 0 5.78 0 0 Z " fill="#D9D9DA" transform="translate(670,261)"/>
<path d="M0 0 C1.65 0 3.3 0 5 0 C5.83919398 2.26882087 6.67151724 4.53977027 7.5 6.8125 C7.73847656 7.45509766 7.97695313 8.09769531 8.22265625 8.75976562 C9.27068746 11.64933739 10 13.90076061 10 17 C8.35 16.67 6.7 16.34 5 16 C5 15.34 5 14.68 5 14 C3.02 14 1.04 14 -1 14 C-1 14.99 -1 15.98 -1 17 C-2.32 17 -3.64 17 -5 17 C-4.35083537 10.99522721 -2.14204997 5.599219 0 0 Z " fill="#D5D5D5" transform="translate(839,261)"/>
<path d="M0 0 C1.32 0 2.64 0 4 0 C4 5.61 4 11.22 4 17 C2.68 17 1.36 17 0 17 C-1.65 14.03 -3.3 11.06 -5 8 C-5.33 10.97 -5.66 13.94 -6 17 C-6.99 17 -7.98 17 -9 17 C-9 11.72 -9 6.44 -9 1 C-4 2 -4 2 -2.1875 4.5625 C-1.795625 5.366875 -1.40375 6.17125 -1 7 C-0.67 4.69 -0.34 2.38 0 0 Z " fill="#EDEDED" transform="translate(566,261)"/>
<path d="M0 0 C2.32421875 0.06640625 2.32421875 0.06640625 5 1 C6.2287699 3.3998938 7.04436044 5.39634323 7.8125 7.9375 C8.02841797 8.58396484 8.24433594 9.23042969 8.46679688 9.89648438 C10 14.58370536 10 14.58370536 10 17 C8.35 16.67 6.7 16.34 5 16 C5 15.34 5 14.68 5 14 C3.02 14 1.04 14 -1 14 C-1.33 14.99 -1.66 15.98 -2 17 C-2.99 17 -3.98 17 -5 17 C-4.46246904 10.81839396 -2.45417612 5.673142 0 0 Z " fill="#D7D7D7" transform="translate(543,261)"/>
<path d="M0 0 C1.32 0 2.64 0 4 0 C4.84161854 2.08000011 5.67300763 4.16414146 6.5 6.25 C6.9640625 7.41015625 7.428125 8.5703125 7.90625 9.765625 C9 13 9 13 9 17 C7.68 17 6.36 17 5 17 C5 16.01 5 15.02 5 14 C2.69 14 0.38 14 -2 14 C-2 14.99 -2 15.98 -2 17 C-3.32 17 -4.64 17 -6 17 C-5.34331435 13.25141943 -4.3123267 9.82030057 -3 6.25 C-2.649375 5.28578125 -2.29875 4.3215625 -1.9375 3.328125 C-1 1 -1 1 0 0 Z " fill="#D8D8D8" transform="translate(807,261)"/>
<path d="M0 0 C3.96 0 7.92 0 12 0 C12 1.32 12 2.64 12 4 C9.36 4 6.72 4 4 4 C4 4.99 4 5.98 4 7 C6.31 7 8.62 7 11 7 C11 7.99 11 8.98 11 10 C8.69 10 6.38 10 4 10 C4 11.32 4 12.64 4 14 C6.97 14 9.94 14 13 14 C13 14.99 13 15.98 13 17 C8.71 17 4.42 17 0 17 C0 11.39 0 5.78 0 0 Z " fill="#DFDFE0" transform="translate(593,261)"/>
<path d="M0 0 C3.5625 0.3125 3.5625 0.3125 5.5 1.625 C6.5625 3.3125 6.5625 3.3125 6.5625 6.3125 C5.2425 6.3125 3.9225 6.3125 2.5625 6.3125 C2.2325 5.6525 1.9025 4.9925 1.5625 4.3125 C0.5725 4.3125 -0.4175 4.3125 -1.4375 4.3125 C-1.4375 4.9725 -1.4375 5.6325 -1.4375 6.3125 C1.2025 7.3025 3.8425 8.2925 6.5625 9.3125 C6.75 12.1875 6.75 12.1875 6.5625 15.3125 C2.86763897 17.77574069 0.92956908 17.70241688 -3.4375 17.3125 C-5.375 16 -5.375 16 -6.4375 14.3125 C-6.4375 13.3225 -6.4375 12.3325 -6.4375 11.3125 C-5.1175 11.3125 -3.7975 11.3125 -2.4375 11.3125 C-2.1075 11.9725 -1.7775 12.6325 -1.4375 13.3125 C-0.1175 13.3125 1.2025 13.3125 2.5625 13.3125 C2.8925 12.6525 3.2225 11.9925 3.5625 11.3125 C2.469375 11.209375 1.37625 11.10625 0.25 11 C-3.4375 10.3125 -3.4375 10.3125 -5.4375 9.0625 C-6.4375 7.3125 -6.4375 7.3125 -6.25 4.75 C-4.96106047 0.88318141 -4.08558791 0.37141708 0 0 Z " fill="#E6E6E6" transform="translate(492.4375,260.6875)"/>
<path d="M0 0 C3.96 0 7.92 0 12 0 C12 1.32 12 2.64 12 4 C9.03 4 6.06 4 3 4 C3 4.99 3 5.98 3 7 C5.64 7 8.28 7 11 7 C11 7.99 11 8.98 11 10 C8.36 10 5.72 10 3 10 C3 11.32 3 12.64 3 14 C5.97 14 8.94 14 12 14 C12 14.99 12 15.98 12 17 C8.04 17 4.08 17 0 17 C0 11.39 0 5.78 0 0 Z " fill="#E7E7E7" transform="translate(777,261)"/>
<path d="M0 0 C3.54583849 0.67899035 4.76699181 1.72414313 6.9375 4.5625 C6.9375 5.2225 6.9375 5.8825 6.9375 6.5625 C3.60416667 5.89583333 0.27083333 5.22916667 -3.0625 4.5625 C-3.0625 7.2025 -3.0625 9.8425 -3.0625 12.5625 C-1.17070797 13.2439823 -1.17070797 13.2439823 0.9375 13.5625 C1.5975 12.9025 2.2575 12.2425 2.9375 11.5625 C4.2575 11.5625 5.5775 11.5625 6.9375 11.5625 C5.78576645 14.03050047 4.88966435 15.61033565 2.9375 17.5625 C-0.4375 18 -0.4375 18 -4.0625 17.5625 C-7.24783648 14.86721529 -7.96350875 13.17844555 -8.625 9.0625 C-8.0625 5.5625 -8.0625 5.5625 -5.9375 2.625 C-3.0625 0.5625 -3.0625 0.5625 0 0 Z " fill="#E6E6E6" transform="translate(395.0625,260.4375)"/>
<path d="M0 0 C2.375 1.3125 2.375 1.3125 4 3 C4 3.99 4 4.98 4 6 C2.68 6 1.36 6 0 6 C0 5.34 0 4.68 0 4 C-1.65 4.33 -3.3 4.66 -5 5 C-5 7.31 -5 9.62 -5 12 C-3.68 12.33 -2.36 12.66 -1 13 C-0.67 12.34 -0.34 11.68 0 11 C1.32 11 2.64 11 4 11 C3.6875 12.875 3.6875 12.875 3 15 C-0.46998729 17.31332486 -1.92509248 17.33957563 -6 17 C-9 15 -9 15 -10 12 C-10.56583243 4.87051143 -10.56583243 4.87051143 -8.375 1.5 C-5.29889257 -0.44280469 -3.58110811 -0.52224493 0 0 Z " fill="#E9E9E9" transform="translate(828,261)"/>
<path d="M0 0 C3.54583849 0.67899035 4.76699181 1.72414313 6.9375 4.5625 C6.9375 5.2225 6.9375 5.8825 6.9375 6.5625 C3.60416667 5.89583333 0.27083333 5.22916667 -3.0625 4.5625 C-3.33182521 9.21302872 -3.33182521 9.21302872 -2.0625 13.5625 C-0.03786745 14.21463292 -0.03786745 14.21463292 1.9375 14.5625 C2.2675 13.5725 2.5975 12.5825 2.9375 11.5625 C4.2575 11.8925 5.5775 12.2225 6.9375 12.5625 C5.1875 16.4375 5.1875 16.4375 2.9375 17.5625 C-1.0755324 18.09757099 -2.60178033 17.89301628 -5.9375 15.5 C-8.0625 12.5625 -8.0625 12.5625 -8.6875 9.0625 C-7.73242364 3.7140724 -5.41870341 0.99527205 0 0 Z " fill="#E6E6E7" transform="translate(582.0625,260.4375)"/>
<path d="M0 0 C1.875 1.3125 1.875 1.3125 3 3 C3 3.99 3 4.98 3 6 C0.03 5.67 -2.94 5.34 -6 5 C-6 7.31 -6 9.62 -6 12 C-4.10820797 12.6814823 -4.10820797 12.6814823 -2 13 C-1.34 12.34 -0.68 11.68 0 11 C0.99 11 1.98 11 3 11 C2.42655063 13.86724686 2.1385485 14.8614515 0 17 C-3.81884318 17.42431591 -6.12405448 17.5390434 -9.4375 15.5 C-11.6077527 12.02759567 -11.89291241 8.92105015 -11 5 C-7.85107955 0.55446525 -5.44419378 -0.94681631 0 0 Z " fill="#EBEBEB" transform="translate(769,261)"/>
<path d="M0 0 C1.32 0 2.64 0 4 0 C4.10832169 2.08218362 4.18573541 4.16599129 4.25 6.25 C4.29640625 7.41015625 4.3428125 8.5703125 4.390625 9.765625 C4 13 4 13 2.17578125 15.3984375 C-0.72522621 17.53382899 -2.47408813 17.45011641 -6 17 C-6.99 16.34 -7.98 15.68 -9 15 C-9.29296875 11.7421875 -9.29296875 11.7421875 -9.1875 7.875 C-9.16042969 6.59367187 -9.13335937 5.31234375 -9.10546875 3.9921875 C-9.07066406 3.00476563 -9.03585937 2.01734375 -9 1 C-8.01 1 -7.02 1 -6 1 C-5.67 4.96 -5.34 8.92 -5 13 C-3.68 13 -2.36 13 -1 13 C-0.67 8.71 -0.34 4.42 0 0 Z " fill="#EDEDED" transform="translate(513,261)"/>
<path d="M0 0 C1.32 0 2.64 0 4 0 C4.10832169 2.08218362 4.18573541 4.16599129 4.25 6.25 C4.29640625 7.41015625 4.3428125 8.5703125 4.390625 9.765625 C4 13 4 13 2.17578125 15.3984375 C-0.72522621 17.53382899 -2.47408813 17.45011641 -6 17 C-6.99 16.34 -7.98 15.68 -9 15 C-9.29296875 11.7421875 -9.29296875 11.7421875 -9.1875 7.875 C-9.16042969 6.59367187 -9.13335937 5.31234375 -9.10546875 3.9921875 C-9.07066406 3.00476563 -9.03585937 2.01734375 -9 1 C-8.01 1 -7.02 1 -6 1 C-5.67 4.96 -5.34 8.92 -5 13 C-3.68 13 -2.36 13 -1 13 C-0.67 8.71 -0.34 4.42 0 0 Z " fill="#EDEDED" transform="translate(380,261)"/>
<path d="M0 0 C3.96 0 7.92 0 12 0 C12 0.66 12 1.32 12 2 C9.03 2 6.06 2 3 2 C3 3.32 3 4.64 3 6 C5.64 6 8.28 6 11 6 C11 6.99 11 7.98 11 9 C8.36 9 5.72 9 3 9 C3 10.32 3 11.64 3 13 C5.97 13 8.94 13 12 13 C12 13.99 12 14.98 12 16 C8.04 16 4.08 16 0 16 C0 10.72 0 5.44 0 0 Z " fill="#F5F5F5" transform="translate(724,262)"/>
<path d="M0 0 C3.96 0 7.92 0 12 0 C12 0.66 12 1.32 12 2 C9.03 2 6.06 2 3 2 C3 3.32 3 4.64 3 6 C5.64 6 8.28 6 11 6 C11 6.99 11 7.98 11 9 C8.36 9 5.72 9 3 9 C3 10.32 3 11.64 3 13 C5.97 13 8.94 13 12 13 C12 13.99 12 14.98 12 16 C8.04 16 4.08 16 0 16 C0 10.72 0 5.44 0 0 Z " fill="#F5F5F5" transform="translate(637,262)"/>
<path d="M0 0 C3.96 0 7.92 0 12 0 C12 0.66 12 1.32 12 2 C9.03 2 6.06 2 3 2 C3 3.32 3 4.64 3 6 C5.64 6 8.28 6 11 6 C11 6.99 11 7.98 11 9 C8.36 9 5.72 9 3 9 C3 10.32 3 11.64 3 13 C5.97 13 8.94 13 12 13 C12 13.99 12 14.98 12 16 C8.04 16 4.08 16 0 16 C0 10.72 0 5.44 0 0 Z " fill="#F5F5F5" transform="translate(336,262)"/>
<path d="M0 0 C2.3125 -0.3125 2.3125 -0.3125 5 0 C6.8125 2.5 6.8125 2.5 8 5 C8.4125 4.175 8.825 3.35 9.25 2.5 C9.8275 1.675 10.405 0.85 11 0 C12.32 0 13.64 0 15 0 C13.16504854 4.7184466 13.16504854 4.7184466 11.9375 6.8125 C10.51539981 10.13073378 10.35851435 13.41485649 10 17 C8.68 17 7.36 17 6 17 C5.90203125 16.41992188 5.8040625 15.83984375 5.703125 15.2421875 C4.67307452 9.8610617 3.22221079 6.40368808 0 2 C0 1.34 0 0.68 0 0 Z " fill="#DDDDDD" transform="translate(907,261)"/>
<path d="M0 0 C1.65 0 3.3 0 5 0 C5 5.61 5 11.22 5 17 C3.35 17 1.7 17 0 17 C0 11.39 0 5.78 0 0 Z " fill="#FFFFFF" transform="translate(405,261)"/>
<path d="M0 0 C1.32 0 2.64 0 4 0 C4 5.61 4 11.22 4 17 C2.68 17 1.36 17 0 17 C0 11.39 0 5.78 0 0 Z " fill="#FFFFFF" transform="translate(460,261)"/>
<path d="M0 0 C1.65 0 3.3 0 5 0 C5.042721 1.66611905 5.04063832 3.33382885 5 5 C4.67 5.33 4.34 5.66 4 6 C3.76636119 7.84891946 3.58696365 9.70488031 3.4375 11.5625 C3.35371094 12.57441406 3.26992188 13.58632813 3.18359375 14.62890625 C3.12300781 15.41136719 3.06242188 16.19382812 3 17 C2.01 17 1.02 17 0 17 C0 11.39 0 5.78 0 0 Z " fill="#F2F2F2" transform="translate(888,261)"/>
<path d="M0 0 C3.57321129 0.40604674 5.1399565 1.92617451 7.75 4.3125 C5.44 4.3125 3.13 4.3125 0.75 4.3125 C0.75 5.3025 0.75 6.2925 0.75 7.3125 C1.74 7.3125 2.73 7.3125 3.75 7.3125 C3.42 8.3025 3.09 9.2925 2.75 10.3125 C-2.125 9.4375 -2.125 9.4375 -3.25 8.3125 C-3.375 4.8125 -3.375 4.8125 -3.25 1.3125 C-2.25 0.3125 -2.25 0.3125 0 0 Z " fill="#151517" transform="translate(439.25,264.6875)"/>
<path d="M0 0 C1.65 0 3.3 0 5 0 C6 1 6 1 6.25 4.4375 C6.1675 5.613125 6.085 6.78875 6 8 C3 10 3 10 0 10 C0 6.7 0 3.4 0 0 Z " fill="#050507" transform="translate(709,265)"/>
<path d="M0 0 C1.65 0 3.3 0 5 0 C6 1 6 1 6.25 4.4375 C6.1675 5.613125 6.085 6.78875 6 8 C3 10 3 10 0 10 C0 6.7 0 3.4 0 0 Z " fill="#060608" transform="translate(622,265)"/>
<path d="M0 0 C1.65 0 3.3 0 5 0 C6 1 6 1 6.25 4.4375 C6.1675 5.613125 6.085 6.78875 6 8 C3 10 3 10 0 10 C0 6.7 0 3.4 0 0 Z " fill="#050506" transform="translate(356,265)"/>
<path d="M0 0 C1.54571278 2.31856917 2.79618552 4.50638429 4 7 C4.66 7 5.32 7 6 7 C5.67 9.31 5.34 11.62 5 14 C3.68 14 2.36 14 1 14 C-0.512545 8.83955235 -1.33500455 5.34001821 0 0 Z " fill="#E3E3E3" transform="translate(893,264)"/>
<path d="M0 0 C1.65 0 3.3 0 5 0 C6.125 6.75 6.125 6.75 5 9 C3.35 9 1.7 9 0 9 C0 6.03 0 3.06 0 0 Z " fill="#050507" transform="translate(857,265)"/>
<path d="M0 0 C2.97 0.495 2.97 0.495 6 1 C5.67 1.99 5.34 2.98 5 4 C3.35 3.67 1.7 3.34 0 3 C0 2.01 0 1.02 0 0 Z " fill="#1F1F20" transform="translate(490,271)"/>
<path d="M0 0 C1.875 0.25 1.875 0.25 4 1 C5.25 3.0625 5.25 3.0625 6 5 C3.69 4.34 1.38 3.68 -1 3 C-0.67 2.01 -0.34 1.02 0 0 Z " fill="#262627" transform="translate(491,264)"/>
<path d="M0 0 C1.65 0 3.3 0 5 0 C4.67 1.32 4.34 2.64 4 4 C2.68 4 1.36 4 0 4 C0 2.68 0 1.36 0 0 Z " fill="#060608" transform="translate(657,265)"/>
<path d="M0 0 C1.65 0 3.3 0 5 0 C5.33 0.99 5.66 1.98 6 3 C4.02 3 2.04 3 0 3 C0 2.01 0 1.02 0 0 Z " fill="#060608" transform="translate(321,265)"/>
</svg>
